<svg width="18" height="18" viewBox="0 0 18 18" fill="none" xmlns="http://www.w3.org/2000/svg">
<path d="M0.5 2C0.5 1.17157 1.17157 0.5 2 0.5H5.17647C6.0049 0.5 6.67647 1.17157 6.67647 2V7.23529C6.67647 8.06372 6.0049 8.73529 5.17647 8.73529H2C1.17157 8.73529 0.5 8.06372 0.5 7.23529V2Z" stroke="white" stroke-linecap="round" stroke-linejoin="round"/>
<path d="M0.5 13.8529C0.5 13.3007 0.947715 12.8529 1.5 12.8529H5.67647C6.22876 12.8529 6.67647 13.3007 6.67647 13.8529V15.9706C6.67647 16.5229 6.22876 16.9706 5.67647 16.9706H1.5C0.947716 16.9706 0.5 16.5229 0.5 15.9706V13.8529Z" stroke="white" stroke-linecap="round" stroke-linejoin="round"/>
<path d="M10.7941 10.2353C10.7941 9.40687 11.4657 8.73529 12.2941 8.73529H15.4706C16.299 8.73529 16.9706 9.40687 16.9706 10.2353V15.4706C16.9706 16.299 16.299 16.9706 15.4706 16.9706H12.2941C11.4657 16.9706 10.7941 16.299 10.7941 15.4706V10.2353Z" stroke="white" stroke-linecap="round" stroke-linejoin="round"/>
<path d="M10.7941 1.5C10.7941 0.947716 11.2418 0.5 11.7941 0.5H15.9706C16.5229 0.5 16.9706 0.947715 16.9706 1.5V3.61765C16.9706 4.16993 16.5229 4.61765 15.9706 4.61765H11.7941C11.2418 4.61765 10.7941 4.16993 10.7941 3.61765V1.5Z" stroke="white" stroke-linecap="round" stroke-linejoin="round"/>
</svg>
