<svg width="17" height="18" viewBox="0 0 17 18" fill="none" xmlns="http://www.w3.org/2000/svg">
<path d="M13.2442 8.15123C13.7342 12.7211 15.658 14.1022 15.658 14.1022H0.500061C0.500061 14.1022 3.02638 12.2886 3.02638 5.94087C3.02638 4.49786 3.55871 3.11396 4.50626 2.0936C5.45382 1.07323 6.73897 0.5 8.07902 0.5C8.36306 0.5 8.64466 0.525759 8.92112 0.576079" stroke="black" stroke-linecap="round" stroke-linejoin="round"/>
<path d="M13.9738 5.60082C15.3691 5.60082 16.5001 4.45896 16.5001 3.05041C16.5001 1.64186 15.3691 0.5 13.9738 0.5C12.5785 0.5 11.4474 1.64186 11.4474 3.05041C11.4474 4.45896 12.5785 5.60082 13.9738 5.60082Z" fill="#B74C00" stroke="#B74C00" stroke-linecap="round" stroke-linejoin="round"/>
<path d="M9.53679 16.6523C9.38875 16.91 9.17629 17.1239 8.92054 17.2725C8.66488 17.4212 8.37503 17.4995 8.07995 17.4995C7.78488 17.4995 7.49502 17.4212 7.23936 17.2725C6.9837 17.1239 6.77115 16.91 6.62311 16.6523" stroke="black" stroke-linecap="round" stroke-linejoin="round"/>
</svg>
